<svg xmlns="http://www.w3.org/2000/svg" viewBox="0 0 96 96" fill="none" id="WebStorm">
<g clip-path="url(#WebStorm_clip0_114_4879)">
<path d="M96 0.000610352H0V96.0006H96V0.000610352Z" fill="black"></path>
<path d="M48 78H12V83.9999H48V78Z" fill="white"></path>
<path d="M46.0489 11.9497L40.6944 32.9557L34.5588 11.9497H28.4604L22.3236 32.9557L16.9692 11.9497H8.57764L18.8592 47.9689H25.6176L31.5096 27.1285L37.3297 47.9689H44.1684L54.4404 11.9497H46.0489Z" fill="white"></path>
<path d="M55.933 42.8397L60.6291 37.2189C63.8763 39.8979 67.2845 41.6019 71.4047 41.6019C74.6601 41.6019 76.6183 40.3133 76.6181 38.1938V38.0921C76.618 36.0828 75.3802 35.0485 69.3439 33.5055C62.07 31.6489 57.3731 29.6312 57.3725 22.4673V22.3572C57.372 15.8123 62.6364 11.4716 70.012 11.4716C74.8817 11.3931 79.6257 13.0184 83.4242 16.0666L79.296 22.052C76.0999 19.8308 72.9545 18.4913 69.9109 18.4913C66.8673 18.4913 65.2652 19.8817 65.2653 21.6365V21.7382C65.2655 24.112 66.8171 24.892 73.0568 26.4859C80.3816 28.3934 84.5104 31.03 84.5109 37.3206V37.4223C84.5114 44.5945 79.0437 48.6131 71.2526 48.6131C65.6105 48.6342 60.1578 46.5792 55.933 42.8396" fill="white"></path>
</g>
</svg>